<svg xmlns="http://www.w3.org/2000/svg" width="116" height="107" fill="none"><path fill="#FF413E" fill-rule="evenodd" d="M58.12 95.313c23.41 0 42.388-19.043 42.388-42.532 0-23.488-18.978-42.53-42.389-42.53-23.41 0-42.388 19.041-42.388 42.53 0 23.49 18.978 42.532 42.388 42.532ZM39.524 71.394a3.5 3.5 0 0 1 0-4.95L53.01 52.96 39.525 39.475a3.5 3.5 0 0 1 4.95-4.95L57.96 48.01l13.485-13.485a3.5 3.5 0 1 1 4.95 4.95L62.91 52.96l13.485 13.485a3.5 3.5 0 1 1-4.95 4.95L57.96 57.91 44.475 71.396a3.5 3.5 0 0 1-4.95 0Z" clip-rule="evenodd"/><path fill="#FF9F9D" d="M106.906 9.845c2.709 0 4.906-2.204 4.906-4.923 0-2.718-2.197-4.922-4.906-4.922C104.196 0 102 2.204 102 4.922c0 2.719 2.196 4.923 4.906 4.923Z"/><path fill="#FFC8C7" d="M37.45 106.751a2.242 2.242 0 0 0 2.238-2.246 2.243 2.243 0 0 0-2.239-2.247 2.243 2.243 0 0 0-2.239 2.247 2.242 2.242 0 0 0 2.24 2.246ZM110.687 51.406c2.589 0 4.687-2.106 4.687-4.703 0-2.597-2.098-4.703-4.687-4.703-2.589 0-4.687 2.106-4.687 4.703 0 2.597 2.098 4.703 4.687 4.703Z" opacity=".8"/><path fill="#FF9F9D" d="M4.71 86.71c2.603 0 4.712-2.117 4.712-4.727 0-2.61-2.11-4.727-4.711-4.727C2.109 77.256 0 79.372 0 81.983c0 2.61 2.11 4.726 4.71 4.726Z"/></svg>